<svg xmlns="http://www.w3.org/2000/svg" width="16" height="16" fill="currentColor" style=""><rect id="backgroundrect" width="100%" height="100%" x="0" y="0" fill="none" stroke="none" class="" style=""/>
  
  
<g class="currentLayer" style=""><title>Layer 1</title><path d="M4.545,6.714 L4.11,8 H3 l1.862,-5 h1.284 L8,8 H6.833 l-0.4350000000000001,-1.286 H4.545 zm1.6340000000000003,-0.7360000000000002 L5.5,3.956 h-0.049000000000000016 l-0.6790000000000004,2.022 H6.18 z" id="svg_1" class="" fill="#ffffff" fill-opacity="1"/><path d="M0,2 a2,2 0 0 1 2,-2 h7 a2,2 0 0 1 2,2 v3 h3 a2,2 0 0 1 2,2 v7 a2,2 0 0 1 -2,2 H7 a2,2 0 0 1 -2,-2 v-3 H2 a2,2 0 0 1 -2,-2 V2 zm2,-1 a1,1 0 0 0 -1,1 v7 a1,1 0 0 0 1,1 h7 a1,1 0 0 0 1,-1 V2 a1,1 0 0 0 -1,-1 H2 zm7.138,9.995 c0.19300000000000006,0.3010000000000001 0.402,0.5830000000000002 0.6300000000000002,0.8460000000000002 c-0.7480000000000002,0.5750000000000002 -1.673,1.001 -2.7680000000000002,1.292 c0.17800000000000005,0.21700000000000005 0.451,0.6350000000000002 0.555,0.8670000000000002 c1.125,-0.3590000000000001 2.08,-0.8440000000000002 2.886,-1.494 c0.777,0.6650000000000003 1.739,1.165 2.93,1.472 c0.133,-0.254 0.4140000000000001,-0.6730000000000004 0.6290000000000002,-0.8900000000000002 c-1.125,-0.253 -2.057,-0.6940000000000004 -2.8200000000000003,-1.284 c0.6810000000000004,-0.7470000000000002 1.222,-1.6510000000000002 1.621,-2.757 H14 V8 h-3 v1.047 h0.7650000000000002 c-0.3180000000000001,0.8440000000000002 -0.7400000000000002,1.546 -1.272,2.13 a6.066,6.066 0 0 1 -0.4150000000000001,-0.4920000000000001 a1.988,1.988 0 0 1 -0.9400000000000002,0.3100000000000001 z" id="svg_2" class="" fill="#ffffff" fill-opacity="1"/></g></svg>